
<global>
amp_veltrack=0
</global>

<group>
ampeg_attack=0.01
ampeg_release=0.25
group_label=Sustain_0-45
lpc_hicc1=42
lpc_locc1=0

<region>
hikey=a#3
hivel=127
lokey=a3
lovel=1
lpc=R5ciQrXl0MJW8b1CKgMWwhR9b0BSQI5AKJGvP93jqUBPqkvBxuqZQKPURcBIQXNAGfFqP2/jb8DGBwxAH/2QP0WaJ8C91jw/4FyjPriaKkCCdo4/JTaewLkfrb7YWAdA
lpc_rms=-25.02
offset=5434
pitch_keycenter=a#3
sample=Cor_fall_PP_A#3.opus
</region>

<region>
hikey=a#4
hivel=127
lokey=a4
lovel=1
lpc=ijY1Qlts/cI8jwlDiUWLwsoMl8BfMwBC0porwXOopEAu90PBv/vLQA+7P8CuFrk/DqrFwGEaoD/7LF9BRRE9waV7WUBpmUS9CkymPh2gbr8OkQ4/5yxrPhDvZMCPwEVA
lpc_rms=-22.68
offset=7661
pitch_keycenter=a#4
sample=Cor_fall_PP_A#4.opus
</region>

<region>
hikey=c4
hivel=127
lokey=b3
lovel=1
lpc=PVQWQmOjwMI8mq5C+SQIwlSLL0D7ARZBTmPZwAw3R0CBBwm//bnXwPs120ClQTzAyNmSPyLXksACCTNBdwivwESZn7+cYeu/48R2v8byiEAm4ga/yDYlwNkRcUDWAQHA
lpc_rms=-24.73
offset=718
pitch_keycenter=c4
sample=Cor_fall_PP_C4.opus
</region>

<region>
hikey=c5
hivel=127
lokey=b4
lovel=1
lpc=DAH3QT/Rj8IeDmdCl9Zowancz8DUW4NAgTf2P2hz20D5dTXBewfPQNJDA8HQcsZAm8j4P+l/SMBzv0m/2yyqQLf9isB5GcK/Wlc+QAPOSz9jaoO/wj+0vz4Ulb9hGCpA
lpc_rms=-24.40
offset=5116
pitch_keycenter=c5
sample=Cor_fall_PP_C5.opus
</region>

<region>
hivel=127
key=d#5
lovel=1
lpc=nLkdQiEcvMJNqqlCQg3jwXiIfcH5VY1BoaSfQPfWC8FHiQJAimnUPk7gbkDrdgfBy+roQK3xpcCNPlhAgegSwBJBfb8rlVRAZduGPyXl3L7P3SjAeXc9PxA60T/Fqpu+
lpc_rms=-25.02
offset=1454
sample=Cor_fall_PP_D#5.opus
</region>

<region>
hikey=d4
hivel=127
lokey=c#4
lovel=1
lpc=Za1YQhp9FsOo+RBDGAk2wmXkl8E3dcNB6ZWtwB98EEGhupvBuv0FQUCBRMHMG31BN8EeQF5TOcGvIqJAP4uoQPEUHcFaDdRAuyRSwEyeV8D9BhxB89EYwJC80cAaeXRA
lpc_rms=-22.48
offset=1721
pitch_keycenter=d4
sample=Cor_fall_PP_D4.opus
</region>

<region>
hikey=d5
hivel=127
lokey=c#5
lovel=1
lpc=0R9CQsc09cKmqOBC+v/ywSRl8sGJGdhBumiwP+QyjEDwQlfBYykhQWN/QsHYgDJBcJ+bwJ0QmsAkrZc/5VIoQQyyhMA3SlK/+jCTv6qsC8C48Y1AAjmewEKUcUBk//K9
lpc_rms=-22.41
offset=622
pitch_keycenter=D5
sample=Cor_fall_PP_D5.opus
</region>

<region>
hikey=e4
hivel=127
lokey=d#4
lovel=1
lpc=MxgIQqAfrsJviJ9CC7/qwcBVGsHyyp1BnZBwvxagR8BmgQjArj9owDkGvD5tBC5A/I8GwIzKfj9hKiC/ajmkQL48R8C/lwRAzbCQwJRgr0DOxPDA5RCtPz4QnkAGFAnA
lpc_rms=-25.04
offset=513
pitch_keycenter=e4
sample=Cor_fall_PP_E4.opus
</region>

<region>
hivel=127
key=f#3
lovel=1
lpc=KMpnQhI4KsMV50ZDVW72wrfFBkKlzRRBBm6EQJAv5MAvCLTArsnFQFJfTcG5OSxB037EwLY8OkBVhTpB1vvGwIg8IsGV2jNBfOqqwEVqwb5Hu7m/GTQbQFWaCkCKde6/
lpc_rms=-23.54
offset=2196
sample=Cor_fall_PP_F#3.opus
</region>

<region>
hikey=f#4
hivel=127
lokey=f4
lovel=1
lpc=gJloQgRTI8Nixi5DYNK9wolhykH2VXJAF3ciwBkq9ECDuw7BMu9ZQLRP4MAh+VFAz0GZwOuK0kAadGE/tEA+P3MZCsAizQFADi+wwCTDEj9nbOZAvD7EwBhhB0B4y+6+
lpc_rms=-21.21
offset=1477
pitch_keycenter=f#4
sample=Cor_fall_PP_F#4.opus
</region>

<region>
hikey=f5
hivel=127
lokey=e5
lovel=1
lpc=reQBQn/do8LG0aJCeL8Lwp3hcMC1t71Ami0zQZI7dMFexENB8BDIwBOqBr+URBdAohqUwFRA0j9JWORAmiy+wPulVMAwtfBAtZ4TwErjLb/yYp2/RKlXwIjrKUEkssDA
lpc_rms=-24.65
offset=1006
pitch_keycenter=f5
sample=Cor_fall_PP_F5.opus
</region>

<region>
hikey=g#3
hivel=127
lokey=g3
lovel=1
lpc=0B5FQg2KA8N00ABDqHhrwjDTQEEcAyu/m3mFQLhrSEDQC6vAthRewNCP379P+AdB4r1JwAfAOj/kwUXAKIAKQMRwDsBXaKdAeZrTwFuDy0DMmYTA61yAwJc3EEEyQnvA
lpc_rms=-23.31
offset=3805
pitch_keycenter=g#3
sample=Cor_fall_PP_G#3.opus
</region>

<region>
hikey=g#4
hivel=127
lokey=g4
lovel=1
lpc=mZK3QvzWb8NyrHFD6i0Ew7P5JEIYciHBBdgpQUJpo0E36xrCc6L4QTrzoMEbRIxBfZPqwWl7k0GzQIpAxtlxwZnDgkDpr1RBznj2wGko50Bmxz7BeqaaQS4SAsL/QpNB
lpc_rms=-17.62
offset=6128
pitch_keycenter=g#4
sample=Cor_fall_PP_G#4.opus
</region>

<region>
hikey=D6
hivel=127
lokey=f#5
lovel=1
lpc=+q6YQuR4OsOk/y9Da8yLwuzZZcGXhu9BQTunQCswNcE9opfBYl8KQhQW9MHjVTVBiuzMvsbkgUCQ+IJBi5KmwUsb2sCqP+hAwBLDQP7HDsGXFQNBqGzoQHNCIsHTtmK/
lpc_rms=-16.93
offset=2648
pitch_keycenter=G5
sample=Cor_fall_PP_G5.opus
</region>
</group>

<group>
ampeg_attack=0.01
ampeg_release=0.25
group_label=Sustain_91-127
lpc_hicc1=84
lpc_locc1=43

<region>
hikey=a#3
hivel=127
lokey=a3
lovel=1
lpc=lOIWQm3u0sJWauRCtvp6wiGsrUG4LjvB/mqAQXr3UMHWp35AdlKIQPU21cA5dWdAgdqEv4985cAl6ktB54TKwLzPRb30x0FAahO5wGNGw0CkSTzA+U2XP8Pk0L/GsVI/
lpc_rms=-20.83
offset=5799
pitch_keycenter=a#3
sample=Cor_fall_FF_A#3.opus
</region>

<region>
hikey=a#4
hivel=127
lokey=a4
lovel=1
lpc=wpFoQmv9JcNAOThDzaPHwk2AmUGkcMlAvAV6Qf4e+8GuhahBklSQv0V4cMFvopdB/pxkwVK5yL85wWpBLIfgwN/QO8BmZIU/m4gsQKnRi79vYkrArw9OQfr5kMH2+QJB
lpc_rms=-14.76
offset=7006
pitch_keycenter=a#4
sample=Cor_fall_FF_A#4.opus
</region>

<region>
hikey=c4
hivel=127
lokey=b3
lovel=1
lpc=gfB9Qqw0N8OJzEhDSe3Bwpbqq8DyRR1Cgjfmv1QT2sGMABJBeVw5QVpRwcF9eQBCI6+pwWtudMA5mI9BVn0MwQDICcFKmRBBQ9IQQb97U8FbjOa+gKAKQRQ87sB5MT5A
lpc_rms=-17.42
offset=15716
pitch_keycenter=c4
sample=Cor_fall_FF_C4.opus
</region>

<region>
hikey=c5
hivel=127
lokey=b4
lovel=1
lpc=kDkAQrpMs8Ks9MtCz/Rnwl7snEDmD4RBAuB2wMmNT8DSttq/9oLXQKAvXsHV7XtBKvmzwHCaC8G3xERBWKczwNhyn8B/OIZAbrcbQNUBtMBl7DNALCSePqulI8AinQlA
lpc_rms=-20.53
offset=543
pitch_keycenter=c5
sample=Cor_fall_FF_C5.opus
</region>

<region>
hivel=127
key=d#5
lovel=1
lpc=bRjBQaiOZMLAmzpCwAUwweCQzcDFCWJAmHmbQIl1gr+vuY7A4fz5P2yfdb8APLI+ikFPQBHM1MA3H8BAd5VXvRQZxL+gxzC/NLOov/6dcUABICXAKtQRP97oQj8yWV6+
lpc_rms=-22.19
offset=1065
sample=Cor_fall_FF_D#5.opus
</region>

<region>
hikey=d4
hivel=127
lokey=c#4
lovel=1
lpc=TyQYQhqY1cJLQNtC+HYpwnJc+MA6xUNBHV/YQJZLb8HNvJJAn8WXQOpv68Ab9uNAnysHwCPY3MDoPBZBRQKwvh9Bs8AIRXk+52oiQPg+HUD37dfAbrjTQHNaPMDfcS8+
lpc_rms=-18.86
offset=343
pitch_keycenter=d4
sample=Cor_fall_FF_D4.opus
</region>

<region>
hikey=d5
hivel=127
lokey=c#5
lovel=1
lpc=v4ZFQlIhB8Mw/AtD/LhfwrXJ4sFD+2pCnVnhwWzfAr/rcxdA8B85QDQNf8FtPZ9BRxIUwSraBME+hb9BPUJqwXC+pz/xhuK+QFiZwD6zZEF2uEHBL1drwG+OLkEmyWHA
lpc_rms=-16.93
offset=1210
pitch_keycenter=D5
sample=Cor_fall_FF_D5.opus
</region>

<region>
hikey=e4
hivel=127
lokey=d#4
lovel=1
lpc=NZn2QVTSp8IBEKVCqAMCwi5RWcAsqYJBMDAZwbwYT0Ajvi3BLBvwQL7WL0DDBZTAFtHQQL7BusBRGE4/tu6VQI5hDcHnHwJBexquwCxAxUDyKuTAFO51QP2lM76rZYG+
lpc_rms=-20.26
offset=87
pitch_keycenter=e4
sample=Cor_fall_FF_E4.opus
</region>

<region>
hivel=127
key=f#3
lovel=1
lpc=4BJTQtHYEMMKqBxDebe2whKAokG34LFBksRoweialsASLWtBjT2EwaSJy0BqtOm/kPLoP/3XmcAuHN1ASe+jQKDRcsEpv2xBG4zzwIZ1Dz08yp2/2YeAwKzJRUH1ncrA
lpc_rms=-19.93
offset=4767
sample=Cor_fall_FF_F#3.opus
</region>

<region>
hikey=f#4
hivel=127
lokey=f4
lovel=1
lpc=9AwgQgvQ28IE7/VCLjKpwhHMIUJB863AKqqmP4jiQMDkfM/ASXwpQbFwGsFoDuZAEnm+wL5UuT/CSoJA9udhv24OBj+4lYq/ugrJwHqf/EDaAw09Hd6WwG2lSkABGUa/
lpc_rms=-20.19
offset=6364
pitch_keycenter=f#4
sample=Cor_fall_FF_F#4.opus
</region>

<region>
hikey=f5
hivel=127
lokey=e5
lovel=1
lpc=NGb5QR4brsJITrtC6/kFwi2OpsE0gMJBEcAjQPnctsEu6ctB1K1qwS1gOz8mbL1Ahc6JvXe6DsHDLiRBgyRKP8NveMHzq5lBqIAJweXbfz76KvC+u9TxP6oN6b7PY5U+
lpc_rms=-20.00
offset=369
pitch_keycenter=f5
sample=Cor_fall_FF_F5.opus
</region>

<region>
hikey=g#3
hivel=127
lokey=g3
lovel=1
lpc=iyMbQqml2cIco+pCHaJkwkWSrr9Q9J1Bh8FNQMmc2sEBe6tBSw79v/Z7HMG74l9BQBHJwJNOFMHoElFB7jWcwHNJgMDVhRVBRjIPwSNTskBY7pzADa2HQGqSkb+/H2q+
lpc_rms=-19.31
offset=7941
pitch_keycenter=g#3
sample=Cor_fall_FF_G#3.opus
</region>

<region>
hikey=g#4
hivel=127
lokey=g4
lovel=1
lpc=+ZgoQotY18LRfNNCn4VzwtJlBEITtovBQVb3QCWx/z+d+QnBDlUIQcoiWsBMdb6+/R3rvwSbn0BPqWvAoVYawHA5tb/k/UNBAN7ewJSkYMCmEOFAFMqZwAxiGsBwcElA
lpc_rms=-20.30
offset=16144
pitch_keycenter=g#4
sample=Cor_fall_FF_G#4.opus
</region>

<region>
hikey=D6
hivel=127
lokey=f#5
lovel=1
lpc=TpBdQqTuE8NqgSJDyZ2ywvIGQEHa+7VBRw0ywf1uWMF5U51BqQYpwKxoLMFWQpxAA2GWQATbIcFht41BkN6uwfQlqUGYjJfB31NwQUC878ASVClBVFmpwYSEpEERkAXB
lpc_rms=-14.98
offset=7534
pitch_keycenter=G5
sample=Cor_fall_FF_G5.opus
</region>
</group>

<group>
ampeg_attack=0.01
ampeg_release=0.25
group_label=Sustain_46-90
lpc_hicc1=127
lpc_locc1=85

<region>
hikey=a#3
hivel=127
lokey=a3
lovel=1
lpc=4nc9QunRCcNzuhVDjZuKwsfzM0DPMRJB3cW1QMsc1sCLjLrA4HIkQcglHMEoK+NAGkgUvh18qcCr/X5A8ADdPl9U9D6R74LAxxXkP3OCLb9lEqNAs5/dvyWaisCrFyRA
lpc_rms=-21.53
offset=707
pitch_keycenter=a#3
sample=Cor_fall_MF_A#3.opus
</region>

<region>
hikey=a#4
hivel=127
lokey=a4
lovel=1
lpc=yPNCQupdDMPqGhdDEtacwqI46EGY157BUSCyQdMsOMHYBZ/AYQInQX7NpsET+6tB0NA4QFcXssF7SctB8p2JwXX7MkAMRgW+nkmCPxYmokCVQI7AHn4YQTDOjcF8vA9B
lpc_rms=-17.80
offset=6130
pitch_keycenter=a#4
sample=Cor_fall_MF_A#4.opus
</region>

<region>
hikey=c4
hivel=127
lokey=b3
lovel=1
lpc=K2gdQre32cKFr+JCOF9PwqRrQz/jYllB/1HjwNMm+EBeqCPBeCSsQE+Wu8AUh65Ae1JMQLCQBMHfJ1hAaVKEQHk7BMDZjpHA7B6MQIVbn7886Ha/+DWXwA4VREHN7tTA
lpc_rms=-23.89
offset=4747
pitch_keycenter=c4
sample=Cor_fall_MF_C4.opus
</region>

<region>
hikey=c5
hivel=127
lokey=b4
lovel=1
lpc=agsBQjl9qMKJ46dCwv71wYS8msHrl/FBfBtewWpEFEHKSTXBcP/yQAsPxsAYb7tApsaEwBd/0r8bXgdBMjp6wNQRWL+GXtG/e5ggQLCnyL/tl2A+1mX9v/BlZUAaAlS/
lpc_rms=-24.95
offset=732
pitch_keycenter=c5
sample=Cor_fall_MF_C5.opus
</region>

<region>
hivel=127
key=d#5
lovel=1
lpc=yIqzQXVrccKiHYBCNjjPwaGnX8HUPbpB+3QTwUAdJ0D6MXLAvKxUQO45YMAOGyw/Pha9QJCbJME1US5B8BZcwMpJxMCX+KZA8FVtQBxJ58DMWmq/oA8UQXz1zMD1BLg/
lpc_rms=-25.31
offset=793
sample=Cor_fall_MF_D#5.opus
</region>

<region>
hikey=d4
hivel=127
lokey=c#4
lovel=1
lpc=LaBfQnNgH8P/cCNDy4uDworVsMArsq9BZughwZgG+UA7ekjBcP+rP+XbOz/w/JZAVt1IPDB2d8AGP2dApXsGwPd6FT8iJ2E/w+BqwOV+lz5o2rVA0BtIO94T1cAFs1ZA
lpc_rms=-20.20
offset=5424
pitch_keycenter=d4
sample=Cor_fall_MF_D4.opus
</region>

<region>
hikey=d5
hivel=127
lokey=c#5
lovel=1
lpc=8DSFQgdRJsNurBJDJabKwfEigMIZ+XZCIVOIwactQkGElYfBrIsPQYG+BsFlkpZAzsY/QCrTKsFykLtAbEYOQWFA6cBkY9xAaezAwMTcpMBmeKBAUs2aQLrJCMF9e7NA
lpc_rms=-18.62
offset=15479
pitch_keycenter=D5
sample=Cor_fall_MF_D5.opus
</region>

<region>
hikey=e4
hivel=127
lokey=d#4
lovel=1
lpc=6kkBQtVJrcInFKhCrXz6wbbGAMFA3GlB/+ATP/btWMBvsFPARYuGQD+vBMEGMuJANKIBwAyRz78tHxtAZh2HQLzDs8CsjWpA7wYqwEcDCb8zsOq/HKZ3QOp7X79h5VO+
lpc_rms=-23.19
offset=982
pitch_keycenter=e4
sample=Cor_fall_MF_E4.opus
</region>

<region>
hivel=127
key=f#3
lovel=1
lpc=8axLQn9GCsPZ3hVDh/S0wneyvUHmntdAjWpNQUmlkcG3BRBBhSMawfWqJECWl3BAi4b4wAetAUE2+ZbAVhckQfPtc8FKaBhBr/5jv67C0D/CDcvAfFSWQIGBC8ACGJM/
lpc_rms=-22.97
offset=3968
sample=Cor_fall_MF_F#3.opus
</region>

<region>
hikey=f#4
hivel=127
lokey=f4
lovel=1
lpc=aYSKQpKjPsNhkkpDXu7mwlcWBULfjFc/RBCRQaYKUcHcVu3AWjQcQJROKECwMKbATgbXwI36SEHObZFAT/wqwT1uykCyXNI/9yfxwKSMKEB3HEm8kiqAvZnXPUCZXgvA
lpc_rms=-18.24
offset=6766
pitch_keycenter=f#4
sample=Cor_fall_MF_F#4.opus
</region>

<region>
hikey=f5
hivel=127
lokey=e5
lovel=1
lpc=24wEQrTIsMLX9LJCFSEHwjCeQ8CSTGO/nUxGQcLnIMHBSug//LWCQM+dhsBhFyVAcSPtP82MNcEwEYRBukoKwRy2gb4KwWxAsoqTwFgicUDq/j7Ap5u/QC6wqsAkCvk/
lpc_rms=-21.62
offset=14274
pitch_keycenter=f5
sample=Cor_fall_MF_F5.opus
</region>

<region>
hikey=g#3
hivel=127
lokey=g3
lovel=1
lpc=/7xbQqH5G8NzOC1DdqrAwiYIWEE5NbFB9n6iwOJRwMB8V4jANuVVQCrxuD8lLvZAKiCDwZT3A0GHZ15AhgNawOTF87+rMK0+NDWLQPNyQ7/HgjrAllmNwGbSB0H2t0LA
lpc_rms=-23.18
offset=2742
pitch_keycenter=g#3
sample=Cor_fall_MF_G#3.opus
</region>

<region>
hikey=g#4
hivel=127
lokey=g4
lovel=1
lpc=WkyAQu7xKcMa9TBD6KLmwrMFlUIxbFXCHC8mQjX7VcF9hZLBfMKkQc7pgsDbFwvAxuR1v6GDjT/lsQHA8lIAP7dKpMAT0F9BLYQSwUu0fUDrLprAivyCQYhM5MHooG9B
lpc_rms=-16.67
offset=5065
pitch_keycenter=g#4
sample=Cor_fall_MF_G#4.opus
</region>

<region>
hikey=D6
hivel=127
lokey=f#5
lovel=1
lpc=/mqZQlfnSsMLG1NDqCurwlCJ/cHrDmxCYQR0wRZz98G4wBhC+3A2wbcMHsFfigm+IbSdQCi+IkFCep4/Vtt0wQjpLEBtW9y/zRnHQOIJ30DKsorA20mUwQXR60H+unTB
lpc_rms=-14.98
offset=1106
pitch_keycenter=G5
sample=Cor_fall_MF_G5.opus
</region>
</group>

<group>
ampeg_attack=0.05
ampeg_release=5.0
group_label=Release_0-45
lpc_hicc1=42
lpc_locc1=0
trigger=release

<region>
hikey=a#3
hivel=127
lokey=a3
lovel=1
lpc=R5ciQrXl0MJW8b1CKgMWwhR9b0BSQI5AKJGvP93jqUBPqkvBxuqZQKPURcBIQXNAGfFqP2/jb8DGBwxAH/2QP0WaJ8C91jw/4FyjPriaKkCCdo4/JTaewLkfrb7YWAdA
lpc_rms=-25.02
offset=105600
pitch_keycenter=a#3
sample=Cor_fall_PP_A#3.opus
</region>

<region>
hikey=a#4
hivel=127
lokey=a4
lovel=1
lpc=ijY1Qlts/cI8jwlDiUWLwsoMl8BfMwBC0porwXOopEAu90PBv/vLQA+7P8CuFrk/DqrFwGEaoD/7LF9BRRE9waV7WUBpmUS9CkymPh2gbr8OkQ4/5yxrPhDvZMCPwEVA
lpc_rms=-22.68
offset=105600
pitch_keycenter=a#4
sample=Cor_fall_PP_A#4.opus
</region>

<region>
hikey=c4
hivel=127
lokey=b3
lovel=1
lpc=PVQWQmOjwMI8mq5C+SQIwlSLL0D7ARZBTmPZwAw3R0CBBwm//bnXwPs120ClQTzAyNmSPyLXksACCTNBdwivwESZn7+cYeu/48R2v8byiEAm4ga/yDYlwNkRcUDWAQHA
lpc_rms=-24.73
offset=105600
pitch_keycenter=c4
sample=Cor_fall_PP_C4.opus
</region>

<region>
hikey=c5
hivel=127
lokey=b4
lovel=1
lpc=DAH3QT/Rj8IeDmdCl9Zowancz8DUW4NAgTf2P2hz20D5dTXBewfPQNJDA8HQcsZAm8j4P+l/SMBzv0m/2yyqQLf9isB5GcK/Wlc+QAPOSz9jaoO/wj+0vz4Ulb9hGCpA
lpc_rms=-24.40
offset=105600
pitch_keycenter=c5
sample=Cor_fall_PP_C5.opus
</region>

<region>
hivel=127
key=d#5
lovel=1
lpc=nLkdQiEcvMJNqqlCQg3jwXiIfcH5VY1BoaSfQPfWC8FHiQJAimnUPk7gbkDrdgfBy+roQK3xpcCNPlhAgegSwBJBfb8rlVRAZduGPyXl3L7P3SjAeXc9PxA60T/Fqpu+
lpc_rms=-25.02
offset=105600
sample=Cor_fall_PP_D#5.opus
</region>

<region>
hikey=d4
hivel=127
lokey=c#4
lovel=1
lpc=Za1YQhp9FsOo+RBDGAk2wmXkl8E3dcNB6ZWtwB98EEGhupvBuv0FQUCBRMHMG31BN8EeQF5TOcGvIqJAP4uoQPEUHcFaDdRAuyRSwEyeV8D9BhxB89EYwJC80cAaeXRA
lpc_rms=-22.48
offset=105600
pitch_keycenter=d4
sample=Cor_fall_PP_D4.opus
</region>

<region>
hikey=d5
hivel=127
lokey=c#5
lovel=1
lpc=0R9CQsc09cKmqOBC+v/ywSRl8sGJGdhBumiwP+QyjEDwQlfBYykhQWN/QsHYgDJBcJ+bwJ0QmsAkrZc/5VIoQQyyhMA3SlK/+jCTv6qsC8C48Y1AAjmewEKUcUBk//K9
lpc_rms=-22.41
offset=105600
pitch_keycenter=D5
sample=Cor_fall_PP_D5.opus
</region>

<region>
hikey=e4
hivel=127
lokey=d#4
lovel=1
lpc=MxgIQqAfrsJviJ9CC7/qwcBVGsHyyp1BnZBwvxagR8BmgQjArj9owDkGvD5tBC5A/I8GwIzKfj9hKiC/ajmkQL48R8C/lwRAzbCQwJRgr0DOxPDA5RCtPz4QnkAGFAnA
lpc_rms=-25.04
offset=105600
pitch_keycenter=e4
sample=Cor_fall_PP_E4.opus
</region>

<region>
hivel=127
key=f#3
lovel=1
lpc=KMpnQhI4KsMV50ZDVW72wrfFBkKlzRRBBm6EQJAv5MAvCLTArsnFQFJfTcG5OSxB037EwLY8OkBVhTpB1vvGwIg8IsGV2jNBfOqqwEVqwb5Hu7m/GTQbQFWaCkCKde6/
lpc_rms=-23.54
offset=105600
sample=Cor_fall_PP_F#3.opus
</region>

<region>
hikey=f#4
hivel=127
lokey=f4
lovel=1
lpc=gJloQgRTI8Nixi5DYNK9wolhykH2VXJAF3ciwBkq9ECDuw7BMu9ZQLRP4MAh+VFAz0GZwOuK0kAadGE/tEA+P3MZCsAizQFADi+wwCTDEj9nbOZAvD7EwBhhB0B4y+6+
lpc_rms=-21.21
offset=105600
pitch_keycenter=f#4
sample=Cor_fall_PP_F#4.opus
</region>

<region>
hikey=f5
hivel=127
lokey=e5
lovel=1
lpc=reQBQn/do8LG0aJCeL8Lwp3hcMC1t71Ami0zQZI7dMFexENB8BDIwBOqBr+URBdAohqUwFRA0j9JWORAmiy+wPulVMAwtfBAtZ4TwErjLb/yYp2/RKlXwIjrKUEkssDA
lpc_rms=-24.65
offset=105600
pitch_keycenter=f5
sample=Cor_fall_PP_F5.opus
</region>

<region>
hikey=g#3
hivel=127
lokey=g3
lovel=1
lpc=0B5FQg2KA8N00ABDqHhrwjDTQEEcAyu/m3mFQLhrSEDQC6vAthRewNCP379P+AdB4r1JwAfAOj/kwUXAKIAKQMRwDsBXaKdAeZrTwFuDy0DMmYTA61yAwJc3EEEyQnvA
lpc_rms=-23.31
offset=105600
pitch_keycenter=g#3
sample=Cor_fall_PP_G#3.opus
</region>

<region>
hikey=g#4
hivel=127
lokey=g4
lovel=1
lpc=mZK3QvzWb8NyrHFD6i0Ew7P5JEIYciHBBdgpQUJpo0E36xrCc6L4QTrzoMEbRIxBfZPqwWl7k0GzQIpAxtlxwZnDgkDpr1RBznj2wGko50Bmxz7BeqaaQS4SAsL/QpNB
lpc_rms=-17.62
offset=105600
pitch_keycenter=g#4
sample=Cor_fall_PP_G#4.opus
</region>

<region>
hikey=D6
hivel=127
lokey=f#5
lovel=1
lpc=+q6YQuR4OsOk/y9Da8yLwuzZZcGXhu9BQTunQCswNcE9opfBYl8KQhQW9MHjVTVBiuzMvsbkgUCQ+IJBi5KmwUsb2sCqP+hAwBLDQP7HDsGXFQNBqGzoQHNCIsHTtmK/
lpc_rms=-16.93
offset=105600
pitch_keycenter=G5
sample=Cor_fall_PP_G5.opus
</region>
</group>

<group>
ampeg_attack=0.05
ampeg_release=5.0
group_label=Release_46-90
lpc_hicc1=84
lpc_locc1=43
trigger=release

<region>
hikey=a#3
hivel=127
lokey=a3
lovel=1
lpc=4nc9QunRCcNzuhVDjZuKwsfzM0DPMRJB3cW1QMsc1sCLjLrA4HIkQcglHMEoK+NAGkgUvh18qcCr/X5A8ADdPl9U9D6R74LAxxXkP3OCLb9lEqNAs5/dvyWaisCrFyRA
lpc_rms=-21.53
offset=105600
pitch_keycenter=a#3
sample=Cor_fall_MF_A#3.opus
</region>

<region>
hikey=a#4
hivel=127
lokey=a4
lovel=1
lpc=yPNCQupdDMPqGhdDEtacwqI46EGY157BUSCyQdMsOMHYBZ/AYQInQX7NpsET+6tB0NA4QFcXssF7SctB8p2JwXX7MkAMRgW+nkmCPxYmokCVQI7AHn4YQTDOjcF8vA9B
lpc_rms=-17.80
offset=105600
pitch_keycenter=a#4
sample=Cor_fall_MF_A#4.opus
</region>

<region>
hikey=c4
hivel=127
lokey=b3
lovel=1
lpc=K2gdQre32cKFr+JCOF9PwqRrQz/jYllB/1HjwNMm+EBeqCPBeCSsQE+Wu8AUh65Ae1JMQLCQBMHfJ1hAaVKEQHk7BMDZjpHA7B6MQIVbn7886Ha/+DWXwA4VREHN7tTA
lpc_rms=-23.89
offset=105600
pitch_keycenter=c4
sample=Cor_fall_MF_C4.opus
</region>

<region>
hikey=c5
hivel=127
lokey=b4
lovel=1
lpc=agsBQjl9qMKJ46dCwv71wYS8msHrl/FBfBtewWpEFEHKSTXBcP/yQAsPxsAYb7tApsaEwBd/0r8bXgdBMjp6wNQRWL+GXtG/e5ggQLCnyL/tl2A+1mX9v/BlZUAaAlS/
lpc_rms=-24.95
offset=105600
pitch_keycenter=c5
sample=Cor_fall_MF_C5.opus
</region>

<region>
hivel=127
key=d#5
lovel=1
lpc=yIqzQXVrccKiHYBCNjjPwaGnX8HUPbpB+3QTwUAdJ0D6MXLAvKxUQO45YMAOGyw/Pha9QJCbJME1US5B8BZcwMpJxMCX+KZA8FVtQBxJ58DMWmq/oA8UQXz1zMD1BLg/
lpc_rms=-25.31
offset=105600
sample=Cor_fall_MF_D#5.opus
</region>

<region>
hikey=d4
hivel=127
lokey=c#4
lovel=1
lpc=LaBfQnNgH8P/cCNDy4uDworVsMArsq9BZughwZgG+UA7ekjBcP+rP+XbOz/w/JZAVt1IPDB2d8AGP2dApXsGwPd6FT8iJ2E/w+BqwOV+lz5o2rVA0BtIO94T1cAFs1ZA
lpc_rms=-20.20
offset=105600
pitch_keycenter=d4
sample=Cor_fall_MF_D4.opus
</region>

<region>
hikey=d5
hivel=127
lokey=c#5
lovel=1
lpc=8DSFQgdRJsNurBJDJabKwfEigMIZ+XZCIVOIwactQkGElYfBrIsPQYG+BsFlkpZAzsY/QCrTKsFykLtAbEYOQWFA6cBkY9xAaezAwMTcpMBmeKBAUs2aQLrJCMF9e7NA
lpc_rms=-18.62
offset=105600
pitch_keycenter=D5
sample=Cor_fall_MF_D5.opus
</region>

<region>
hikey=e4
hivel=127
lokey=d#4
lovel=1
lpc=6kkBQtVJrcInFKhCrXz6wbbGAMFA3GlB/+ATP/btWMBvsFPARYuGQD+vBMEGMuJANKIBwAyRz78tHxtAZh2HQLzDs8CsjWpA7wYqwEcDCb8zsOq/HKZ3QOp7X79h5VO+
lpc_rms=-23.19
offset=105600
pitch_keycenter=e4
sample=Cor_fall_MF_E4.opus
</region>

<region>
hivel=127
key=f#3
lovel=1
lpc=8axLQn9GCsPZ3hVDh/S0wneyvUHmntdAjWpNQUmlkcG3BRBBhSMawfWqJECWl3BAi4b4wAetAUE2+ZbAVhckQfPtc8FKaBhBr/5jv67C0D/CDcvAfFSWQIGBC8ACGJM/
lpc_rms=-22.97
offset=105600
sample=Cor_fall_MF_F#3.opus
</region>

<region>
hikey=f#4
hivel=127
lokey=f4
lovel=1
lpc=aYSKQpKjPsNhkkpDXu7mwlcWBULfjFc/RBCRQaYKUcHcVu3AWjQcQJROKECwMKbATgbXwI36SEHObZFAT/wqwT1uykCyXNI/9yfxwKSMKEB3HEm8kiqAvZnXPUCZXgvA
lpc_rms=-18.24
offset=105600
pitch_keycenter=f#4
sample=Cor_fall_MF_F#4.opus
</region>

<region>
hikey=f5
hivel=127
lokey=e5
lovel=1
lpc=24wEQrTIsMLX9LJCFSEHwjCeQ8CSTGO/nUxGQcLnIMHBSug//LWCQM+dhsBhFyVAcSPtP82MNcEwEYRBukoKwRy2gb4KwWxAsoqTwFgicUDq/j7Ap5u/QC6wqsAkCvk/
lpc_rms=-21.62
offset=105600
pitch_keycenter=f5
sample=Cor_fall_MF_F5.opus
</region>

<region>
hikey=g#3
hivel=127
lokey=g3
lovel=1
lpc=/7xbQqH5G8NzOC1DdqrAwiYIWEE5NbFB9n6iwOJRwMB8V4jANuVVQCrxuD8lLvZAKiCDwZT3A0GHZ15AhgNawOTF87+rMK0+NDWLQPNyQ7/HgjrAllmNwGbSB0H2t0LA
lpc_rms=-23.18
offset=105600
pitch_keycenter=g#3
sample=Cor_fall_MF_G#3.opus
</region>

<region>
hikey=g#4
hivel=127
lokey=g4
lovel=1
lpc=WkyAQu7xKcMa9TBD6KLmwrMFlUIxbFXCHC8mQjX7VcF9hZLBfMKkQc7pgsDbFwvAxuR1v6GDjT/lsQHA8lIAP7dKpMAT0F9BLYQSwUu0fUDrLprAivyCQYhM5MHooG9B
lpc_rms=-16.67
offset=105600
pitch_keycenter=g#4
sample=Cor_fall_MF_G#4.opus
</region>

<region>
hikey=D6
hivel=127
lokey=f#5
lovel=1
lpc=/mqZQlfnSsMLG1NDqCurwlCJ/cHrDmxCYQR0wRZz98G4wBhC+3A2wbcMHsFfigm+IbSdQCi+IkFCep4/Vtt0wQjpLEBtW9y/zRnHQOIJ30DKsorA20mUwQXR60H+unTB
lpc_rms=-14.98
offset=105600
pitch_keycenter=G5
sample=Cor_fall_MF_G5.opus
</region>
</group>

<group>
ampeg_attack=0.05
ampeg_release=5.0
group_label=Release_91-127
lpc_hicc1=127
lpc_locc1=85
trigger=release

<region>
hikey=a#3
hivel=127
lokey=a3
lovel=1
lpc=lOIWQm3u0sJWauRCtvp6wiGsrUG4LjvB/mqAQXr3UMHWp35AdlKIQPU21cA5dWdAgdqEv4985cAl6ktB54TKwLzPRb30x0FAahO5wGNGw0CkSTzA+U2XP8Pk0L/GsVI/
lpc_rms=-20.83
offset=105600
pitch_keycenter=a#3
sample=Cor_fall_FF_A#3.opus
</region>

<region>
hikey=a#4
hivel=127
lokey=a4
lovel=1
lpc=wpFoQmv9JcNAOThDzaPHwk2AmUGkcMlAvAV6Qf4e+8GuhahBklSQv0V4cMFvopdB/pxkwVK5yL85wWpBLIfgwN/QO8BmZIU/m4gsQKnRi79vYkrArw9OQfr5kMH2+QJB
lpc_rms=-14.76
offset=105600
pitch_keycenter=a#4
sample=Cor_fall_FF_A#4.opus
</region>

<region>
hikey=c4
hivel=127
lokey=b3
lovel=1
lpc=gfB9Qqw0N8OJzEhDSe3Bwpbqq8DyRR1Cgjfmv1QT2sGMABJBeVw5QVpRwcF9eQBCI6+pwWtudMA5mI9BVn0MwQDICcFKmRBBQ9IQQb97U8FbjOa+gKAKQRQ87sB5MT5A
lpc_rms=-17.42
offset=105600
pitch_keycenter=c4
sample=Cor_fall_FF_C4.opus
</region>

<region>
hikey=c5
hivel=127
lokey=b4
lovel=1
lpc=kDkAQrpMs8Ks9MtCz/Rnwl7snEDmD4RBAuB2wMmNT8DSttq/9oLXQKAvXsHV7XtBKvmzwHCaC8G3xERBWKczwNhyn8B/OIZAbrcbQNUBtMBl7DNALCSePqulI8AinQlA
lpc_rms=-20.53
offset=105600
pitch_keycenter=c5
sample=Cor_fall_FF_C5.opus
</region>

<region>
hivel=127
key=d#5
lovel=1
lpc=bRjBQaiOZMLAmzpCwAUwweCQzcDFCWJAmHmbQIl1gr+vuY7A4fz5P2yfdb8APLI+ikFPQBHM1MA3H8BAd5VXvRQZxL+gxzC/NLOov/6dcUABICXAKtQRP97oQj8yWV6+
lpc_rms=-22.19
offset=105600
sample=Cor_fall_FF_D#5.opus
</region>

<region>
hikey=d4
hivel=127
lokey=c#4
lovel=1
lpc=TyQYQhqY1cJLQNtC+HYpwnJc+MA6xUNBHV/YQJZLb8HNvJJAn8WXQOpv68Ab9uNAnysHwCPY3MDoPBZBRQKwvh9Bs8AIRXk+52oiQPg+HUD37dfAbrjTQHNaPMDfcS8+
lpc_rms=-18.86
offset=105600
pitch_keycenter=d4
sample=Cor_fall_FF_D4.opus
</region>

<region>
hikey=d5
hivel=127
lokey=c#5
lovel=1
lpc=v4ZFQlIhB8Mw/AtD/LhfwrXJ4sFD+2pCnVnhwWzfAr/rcxdA8B85QDQNf8FtPZ9BRxIUwSraBME+hb9BPUJqwXC+pz/xhuK+QFiZwD6zZEF2uEHBL1drwG+OLkEmyWHA
lpc_rms=-16.93
offset=105600
pitch_keycenter=D5
sample=Cor_fall_FF_D5.opus
</region>

<region>
hikey=e4
hivel=127
lokey=d#4
lovel=1
lpc=NZn2QVTSp8IBEKVCqAMCwi5RWcAsqYJBMDAZwbwYT0Ajvi3BLBvwQL7WL0DDBZTAFtHQQL7BusBRGE4/tu6VQI5hDcHnHwJBexquwCxAxUDyKuTAFO51QP2lM76rZYG+
lpc_rms=-20.26
offset=105600
pitch_keycenter=e4
sample=Cor_fall_FF_E4.opus
</region>

<region>
hivel=127
key=f#3
lovel=1
lpc=4BJTQtHYEMMKqBxDebe2whKAokG34LFBksRoweialsASLWtBjT2EwaSJy0BqtOm/kPLoP/3XmcAuHN1ASe+jQKDRcsEpv2xBG4zzwIZ1Dz08yp2/2YeAwKzJRUH1ncrA
lpc_rms=-19.93
offset=105600
sample=Cor_fall_FF_F#3.opus
</region>

<region>
hikey=f#4
hivel=127
lokey=f4
lovel=1
lpc=9AwgQgvQ28IE7/VCLjKpwhHMIUJB863AKqqmP4jiQMDkfM/ASXwpQbFwGsFoDuZAEnm+wL5UuT/CSoJA9udhv24OBj+4lYq/ugrJwHqf/EDaAw09Hd6WwG2lSkABGUa/
lpc_rms=-20.19
offset=105600
pitch_keycenter=f#4
sample=Cor_fall_FF_F#4.opus
</region>

<region>
hikey=f5
hivel=127
lokey=e5
lovel=1
lpc=NGb5QR4brsJITrtC6/kFwi2OpsE0gMJBEcAjQPnctsEu6ctB1K1qwS1gOz8mbL1Ahc6JvXe6DsHDLiRBgyRKP8NveMHzq5lBqIAJweXbfz76KvC+u9TxP6oN6b7PY5U+
lpc_rms=-20.00
offset=105600
pitch_keycenter=f5
sample=Cor_fall_FF_F5.opus
</region>

<region>
hikey=g#3
hivel=127
lokey=g3
lovel=1
lpc=iyMbQqml2cIco+pCHaJkwkWSrr9Q9J1Bh8FNQMmc2sEBe6tBSw79v/Z7HMG74l9BQBHJwJNOFMHoElFB7jWcwHNJgMDVhRVBRjIPwSNTskBY7pzADa2HQGqSkb+/H2q+
lpc_rms=-19.31
offset=105600
pitch_keycenter=g#3
sample=Cor_fall_FF_G#3.opus
</region>

<region>
hikey=g#4
hivel=127
lokey=g4
lovel=1
lpc=+ZgoQotY18LRfNNCn4VzwtJlBEITtovBQVb3QCWx/z+d+QnBDlUIQcoiWsBMdb6+/R3rvwSbn0BPqWvAoVYawHA5tb/k/UNBAN7ewJSkYMCmEOFAFMqZwAxiGsBwcElA
lpc_rms=-20.30
offset=105600
pitch_keycenter=g#4
sample=Cor_fall_FF_G#4.opus
</region>

<region>
hikey=D6
hivel=127
lokey=f#5
lovel=1
lpc=TpBdQqTuE8NqgSJDyZ2ywvIGQEHa+7VBRw0ywf1uWMF5U51BqQYpwKxoLMFWQpxAA2GWQATbIcFht41BkN6uwfQlqUGYjJfB31NwQUC878ASVClBVFmpwYSEpEERkAXB
lpc_rms=-14.98
offset=105600
pitch_keycenter=G5
sample=Cor_fall_FF_G5.opus
</region>
</group>